<svg width="150" height="150" viewBox="300 90 15 200" xmlns="http://www.w3.org/2000/svg" >
    <path class="cog-blue" d="M291.75,91.637c-6.476,0.985 -12.839,2.603 -18.999,4.832l0.962,15.729c-5.814,2.455 -11.337,5.551 -16.466,9.229l-12.915,-9.028c-5.115,4.091 -9.817,8.675 -14.036,13.685l8.696,13.14c-3.807,5.034 -7.042,10.476 -9.644,16.226l-15.699,-1.361c-2.385,6.101 -4.165,12.421 -5.314,18.869l14.102,7.032c-0.781,6.263 -0.861,12.593 -0.24,18.874l-14.276,6.671c0.985,6.476 2.604,12.839 4.833,18.998l15.728,-0.961c2.456,5.814 5.551,11.336 9.23,16.465l-9.028,12.915c4.091,5.116 8.674,9.818 13.684,14.037l13.141,-8.697c5.033,3.807 10.475,7.042 16.225,9.645l-1.36,15.699c6.1,2.385 12.42,4.164 18.869,5.313l7.031,-14.101c6.263,0.78 12.594,0.861 18.875,0.239l6.67,14.276c6.476,-0.985 12.84,-2.603 18.999,-4.832l-0.962,-15.729c5.814,-2.455 11.337,-5.551 16.466,-9.229l12.915,9.028c5.116,-4.091 9.817,-8.675 14.036,-13.685l-8.696,-13.14c3.807,-5.034 7.042,-10.476 9.645,-16.226l15.698,1.361c2.385,-6.101 4.165,-12.421 5.314,-18.869l-14.102,-7.032c0.781,-6.263 0.861,-12.593 0.24,-18.874l14.276,-6.671c-0.985,-6.476 -2.604,-12.839 -4.833,-18.998l-15.728,0.961c-2.456,-5.814 -5.551,-11.336 -9.23,-16.465l9.028,-12.915c-4.091,-5.116 -8.674,-9.818 -13.684,-14.037l-13.14,8.697c-5.034,-3.807 -10.476,-7.042 -16.226,-9.645l1.361,-15.699c-6.101,-2.385 -12.421,-4.164 -18.87,-5.313l-7.031,14.101c-6.263,-0.78 -12.594,-0.861 -18.875,-0.239l-6.67,-14.276ZM301.854,171.117c10.698,-2.721 21.592,3.755 24.313,14.452c2.722,10.698 -3.754,21.592 -14.452,24.314c-10.697,2.721 -21.592,-3.755 -24.313,-14.452c-2.721,-10.698 3.754,-21.592 14.452,-24.314Z" fill="#006fa2"/>
</svg>